<?xml version="1.0" encoding="UTF-8"?>
<svg version="1.1" xmlns="http://www.w3.org/2000/svg" width="512" height="512">
    <path
        d="M0 0 C1.14265965 0.72119887 2.28853101 1.43733333 3.4375 2.1484375 C4.01371094 2.51098633 4.58992187 2.87353516 5.18359375 3.24707031 C17.81256612 11.08925477 30.2591125 15.5122718 44.88085938 18.00097656 C50.76613927 19.10218503 54.66823752 20.65705392 59.22387695 24.59228516 C65.60621838 29.65078422 74.23416925 29.88383496 82 29 C90.16964038 27.07196487 97.86874355 23.56167132 102.71875 16.49609375 C103.74086571 14.77503127 104.73001238 13.03370183 105.67578125 11.26953125 C109.773869 4.24596492 118.52846273 -1.24065213 126 -4 C132.42483877 -4.97526041 138.74570213 -3.40311505 145 -2 C146.77078829 -1.64170437 148.54162243 -1.28363534 150.3125 -0.92578125 C176.98413728 4.74285011 200.2779631 16.20342713 221 34 C221.8559375 34.7321875 222.711875 35.464375 223.59375 36.21875 C249.54716221 58.96803724 262.16323689 88.06287673 272.87991333 120.15036011 C273.32835488 121.48870761 273.78203818 122.82531233 274.24142456 124.15994263 C278.39495397 136.29437259 280.08150595 146.4075434 274.546875 158.30078125 C270.02766362 166.18657686 263.45138004 170.18287332 255 173 C252.85677525 173.09642211 250.71061195 173.13096567 248.56522179 173.13422108 C247.90599088 173.13657331 247.24675998 173.13892554 246.56755239 173.14134905 C244.34298201 173.14804331 242.11846999 173.1475807 239.89389038 173.14717102 C238.2890424 173.15046939 236.68419525 173.15419489 235.07934916 173.1583125 C230.65688769 173.16834383 226.2344398 173.17205112 221.81196856 173.17470181 C217.04697259 173.17860153 212.28198739 173.18818012 207.51699829 173.19691467 C196.00309046 173.2166889 184.48918173 173.22674669 172.97526115 173.23564246 C167.55511762 173.24002395 162.13497506 173.24539114 156.71483231 173.25063133 C138.70017639 173.26764487 120.6855211 173.28213933 102.67085838 173.28938007 C97.9946022 173.29129002 93.31834601 173.29321034 88.64208984 173.29516602 C86.89866615 173.29589163 86.89866615 173.29589163 85.12002178 173.2966319 C66.28927061 173.30493325 47.45858295 173.33027141 28.62785952 173.36274669 C9.30111771 173.39580604 -10.02559181 173.41382783 -29.35236204 173.41702431 C-40.20618652 173.41919049 -51.05991841 173.42795492 -61.91371536 173.45348549 C-71.156923 173.47517714 -80.40001557 173.48325047 -89.64324577 173.47351871 C-94.35929211 173.46896952 -99.07510094 173.47089621 -103.79111481 173.49028015 C-108.11048885 173.50788044 -112.42945155 173.50693963 -116.74882977 173.49138286 C-118.30946016 173.48900201 -119.87011881 173.49335508 -121.43070598 173.50521151 C-133.01915693 173.58778358 -141.50056072 172.09903383 -150.20703125 164.0703125 C-156.02219018 157.35564097 -158.45272219 149.40277771 -158.36621094 140.67431641 C-157.62357616 133.22321412 -155.0252639 126.24452635 -152.625 119.1875 C-152.07436412 117.5349179 -151.52374579 115.88232996 -150.97314453 114.22973633 C-143.01990655 90.60568356 -133.64304435 68.84539026 -117 50 C-115.73736328 48.53820312 -115.73736328 48.53820312 -114.44921875 47.046875 C-91.35084824 20.72970574 -59.39608659 3.90929772 -25 -2 C-24.20045898 -2.13841309 -23.40091797 -2.27682617 -22.57714844 -2.41943359 C-20.15944164 -2.81726586 -17.74009548 -3.16829287 -15.3125 -3.5 C-14.58216553 -3.61384033 -13.85183105 -3.72768066 -13.09936523 -3.8449707 C-7.63094301 -4.48939331 -4.3647168 -3.03141899 0 0 Z "
        fill="#fff" transform="translate(196,339)" />
    <path
        d="M0 0 C0.86625 0.37898438 1.7325 0.75796875 2.625 1.1484375 C27.22649498 12.6035086 44.56181578 34.66845975 53.875 59.625 C69.2998893 103.08572614 61.64166271 152.4591743 42.67578125 193.5703125 C36.63820727 206.1169027 29.25314869 217.58188655 20 228 C19.28328125 228.84820312 18.5665625 229.69640625 17.828125 230.5703125 C12.4492779 236.80748626 6.50675608 241.96486539 0 247 C-3.82774487 245.1987083 -7.13955866 242.87310342 -10.5859375 240.4375 C-18.41400956 235.77612376 -28.23434319 235.58909192 -36.953125 237.72265625 C-39.42661135 238.65969786 -41.68581599 239.72233351 -44 241 C-44.63292969 241.32742188 -45.26585937 241.65484375 -45.91796875 241.9921875 C-52.20762277 245.79652569 -55.78560329 252.57120659 -59 259 C-82.66573773 254.63788309 -101.27623734 236.10005412 -114.734375 217.2109375 C-133.06608328 190.59371135 -143.86000676 159.07972479 -147 127 C-147.06848145 126.30922363 -147.13696289 125.61844727 -147.20751953 124.90673828 C-150.2895471 91.68767971 -144.40283039 55.39209491 -123.00512695 28.76708984 C-92.84439085 -7.11847729 -42.96259669 -19.45250906 0 0 Z "
        fill="#fff" transform="translate(299,65)" />
    <path
        d="M0 0 C1.09024475 0.00373123 1.09024475 0.00373123 2.20251465 0.00753784 C39.12834362 0.20276503 72.82136703 13.64912269 99.28125 39.65625 C124.98628341 65.80832747 140.19823732 99.80364476 139.9152832 136.50683594 C139.8876815 138.77557101 139.85432479 141.04398762 139.8125 143.3125 C140.42609375 143.580625 141.0396875 143.84875 141.671875 144.125 C144.78313825 145.85095626 146.04685049 148.28567226 147.8125 151.3125 C147.8125 151.9725 147.8125 152.6325 147.8125 153.3125 C148.46734375 153.32667969 149.1221875 153.34085938 149.796875 153.35546875 C161.37228011 153.96039811 170.33676103 157.84826426 178.6875 165.91796875 C186.66721549 174.90981727 190.18818725 186.6020738 190.02734375 198.46875 C189.10106452 210.72931873 184.81229204 221.78315163 175.8125 230.3125 C168.94297777 235.92701336 161.48882052 239.25047233 152.5625 239.4375 C148.17788416 240.46057703 147.80412203 241.18825273 145.4375 244.8125 C144.97601563 245.6271875 144.51453125 246.441875 144.0390625 247.28125 C142.8125 249.3125 142.8125 249.3125 140.8125 250.3125 C140.40799514 252.70427799 140.40799514 252.70427799 140.3203125 255.60546875 C140.25755127 256.70431396 140.19479004 257.80315918 140.13012695 258.93530273 C140.06656006 260.11165283 140.00299316 261.28800293 139.9375 262.5 C138.71289377 280.76755882 135.13405225 295.15385912 121.37890625 308.1875 C100.77646174 325.24644949 72.58222738 330.47712002 47.25 336.8125 C46.18462006 337.07906403 46.18462006 337.07906403 45.09771729 337.35101318 C33.21137198 340.3125 33.21137198 340.3125 30.8125 340.3125 C30.626875 341.17875 30.44125 342.045 30.25 342.9375 C28.39049562 347.30329289 25.69148489 349.66027648 21.8125 352.3125 C16.46645956 354.09451348 11.50965192 353.80150988 6.125 352.25 C1.22061868 349.38139961 -2.37363147 345.75410558 -4.1875 340.3125 C-4.72135142 334.34773706 -4.74020149 329.35504405 -1.1875 324.3125 C3.42425179 319.67894324 6.92239583 317.18605031 13.625 317.0625 C18.11580266 317.09513665 20.89497066 318.03486666 24.8125 320.3125 C28.37384865 321.2900271 30.84576349 321.33322013 34.40893555 320.41967773 C35.7326844 320.08824013 35.7326844 320.08824013 37.08317566 319.75010681 C38.50186699 319.37687035 38.50186699 319.37687035 39.94921875 318.99609375 C40.942668 318.7425563 41.93611725 318.48901886 42.95967102 318.22779846 C45.06826063 317.68716169 47.17551201 317.14128255 49.28149414 316.59057617 C52.4403584 315.76557658 55.60337339 314.95853741 58.76757812 314.15429688 C68.25310088 311.72016558 77.67723198 309.17125111 86.9765625 306.09375 C87.69377975 305.85712143 88.41099701 305.62049286 89.14994812 305.37669373 C99.96467436 301.68439918 109.05440562 295.84030856 114.5625 285.625 C118.57214015 276.81434336 120.07144176 267.96038761 120.8125 258.375 C120.92996582 257.14922241 120.92996582 257.14922241 121.04980469 255.89868164 C121.30257589 251.55989076 121.37824651 249.96850541 118.4375 246.55859375 C117.57125 245.81738281 116.705 245.07617188 115.8125 244.3125 C113.65934935 240.2013722 113.53019515 236.55465751 113.46191406 231.95874023 C113.44865585 231.23601425 113.43539764 230.51328827 113.42173767 229.7686615 C113.3807611 227.38617811 113.35393402 225.00378626 113.328125 222.62109375 C113.30430386 220.95304103 113.27994218 219.28499594 113.25506592 217.61695862 C113.20518492 214.11928145 113.16240459 210.62160622 113.12451172 207.1237793 C113.07563881 202.67108253 113.00848702 198.21888762 112.93576431 193.76652431 C112.88166196 190.31849035 112.83789418 186.87038104 112.79705048 183.42216682 C112.77634501 181.78250807 112.75244159 180.14288612 112.72510529 178.50332451 C112.34675619 154.90544098 112.34675619 154.90544098 117 148.125 C119.10433289 144.85965586 119.12138032 142.97330454 118.48828125 139.1875 C113.13034949 116.393062 103.67451328 95.76957606 87.8125 78.3125 C87.19246094 77.62285156 86.57242187 76.93320313 85.93359375 76.22265625 C65.08282038 54.24010812 33.82835871 40.98415088 3.66796875 40.109375 C-32.09736988 39.61145241 -64.36013469 50.26554011 -90.375 75.40625 C-107.3473736 92.5185058 -121.37073569 118.97272877 -123.43359375 143.203125 C-123.33518476 145.55249245 -123.33518476 145.55249245 -121.3125 147.875 C-116.29740048 155.00640038 -117.07560007 164.62424326 -117.12890625 172.9765625 C-117.13239578 173.92447662 -117.13588531 174.87239075 -117.13948059 175.84902954 C-117.14790536 177.9124226 -117.15818602 179.97580873 -117.17010498 182.03918457 C-117.1879762 185.40210824 -117.19629188 188.7649677 -117.20361328 192.12792969 C-117.22085463 198.09612973 -117.27216207 204.06342399 -117.34008789 210.03125 C-117.36360129 212.4937445 -117.37773959 214.9563443 -117.38305664 217.41894531 C-117.39233435 221.03772653 -117.43318931 224.65497781 -117.48046875 228.2734375 C-117.4765361 229.36618988 -117.47260345 230.45894226 -117.46855164 231.58480835 C-117.59681623 238.30737223 -118.57654354 243.22195976 -123.1875 248.3125 C-128.28463408 252.18936867 -133.29993026 252.94872154 -139.6328125 252.703125 C-144.25559813 251.99627705 -146.93796728 249.7405374 -149.9375 246.3125 C-151.1875 244.3125 -151.1875 244.3125 -151.9609375 242.2421875 C-153.02336771 240.09768194 -153.02336771 240.09768194 -155.3671875 239.6953125 C-156.25664062 239.61023438 -157.14609375 239.52515625 -158.0625 239.4375 C-169.67484802 237.67436863 -179.94087868 231.33100659 -186.96875 221.9296875 C-194.02308589 210.89864266 -195.8642355 199.44277698 -193.71875 186.48046875 C-190.81880566 175.51936961 -184.02311218 165.5089877 -174.32421875 159.5546875 C-167.09309494 155.75076722 -160.38247398 153.3125 -152.1875 153.3125 C-151.960625 152.405 -151.73375 151.4975 -151.5 150.5625 C-150.1875 147.3125 -150.1875 147.3125 -147.64453125 145.8125 C-143.7237068 141.82310787 -144.53482154 137.44038397 -144.5625 132.0625 C-143.85957806 95.92530983 -128.71862147 65.49669746 -103.76171875 39.81640625 C-96.60195099 33.06576807 -88.43217275 27.63544779 -80.1875 22.3125 C-79.61016113 21.93706055 -79.03282227 21.56162109 -78.43798828 21.17480469 C-63.696528 11.74201208 -46.35594994 5.55390644 -29.1875 2.3125 C-28.26670654 2.13662354 -27.34591309 1.96074707 -26.3972168 1.77954102 C-17.57898284 0.25057577 -8.91784455 -0.04887434 0 0 Z "
        fill="#fff" transform="translate(258.1875,-0.3125)" />
</svg>