<?xml version="1.0" encoding="UTF-8"?>
<svg version="1.1" xmlns="http://www.w3.org/2000/svg" width="50" height="50">
    <path
        d="M0 0 C0.886875 0.5775 1.77375 1.155 2.6875 1.75 C2.81125 2.554375 2.935 3.35875 3.0625 4.1875 C3.26875 5.033125 3.475 5.87875 3.6875 6.75 C5.52147807 7.66372172 5.52147807 7.66372172 7.6875 8.4375 C9.890625 9.37890625 9.890625 9.37890625 11.6875 10.75 C12.36770282 13.43156881 12.44129177 15.74721719 12.359375 18.5078125 C12.46765625 19.24773438 12.5759375 19.98765625 12.6875 20.75 C14.61965772 22.11278467 14.61965772 22.11278467 16.6875 22.75 C16.80525044 33.44846849 16.80525044 33.44846849 14.23828125 36.4375 C11.59481785 37.99720075 9.30260524 38.77053611 6.23046875 38.66796875 C3.16323019 38.76691193 1.79546366 39.64728581 -0.75 41.3125 C-3.66541505 43.0059424 -4.95186471 43.7426401 -8.375 43.8125 C-11.53504173 42.66950618 -14.40006466 41.23489421 -17.36328125 39.66015625 C-19.94134585 38.45637057 -22.5143327 38.18527047 -25.3125 37.75 C-27.95703125 36.6015625 -27.95703125 36.6015625 -30.3125 34.75 C-30.90625 31.90234375 -30.90625 31.90234375 -30.8125 28.6875 C-30.8021875 27.62402344 -30.791875 26.56054688 -30.78125 25.46484375 C-30.6265625 24.56894531 -30.471875 23.67304688 -30.3125 22.75 C-29.3225 22.09 -28.3325 21.43 -27.3125 20.75 C-27.06893257 18.47939864 -27.06893257 18.47939864 -27.1875 15.9375 C-27.01953125 13.21875 -27.01953125 13.21875 -26.3125 10.75 C-24.1158135 8.98919825 -21.95715868 7.97405803 -19.390625 6.83203125 C-16.57353357 5.3652374 -16.31124895 3.66942001 -15.3125 0.75 C-9.66994872 -3.09719406 -6.11593794 -2.30790111 0 0 Z M-8.3125 0.75 C-9.3025 1.74 -10.2925 2.73 -11.3125 3.75 C-8.8375 4.74 -8.8375 4.74 -6.3125 5.75 C-5.3225 4.76 -4.3325 3.77 -3.3125 2.75 C-5.7875 1.76 -5.7875 1.76 -8.3125 0.75 Z M-14.3125 5.75 C-14.64675735 8.12374861 -14.64675735 8.12374861 -14.3125 10.75 C-12.26825462 12.72610386 -11.1948175 13.75 -8.3125 13.75 C-8.3125 12.1 -8.3125 10.45 -8.3125 8.75 C-10.2925 7.76 -12.2725 6.77 -14.3125 5.75 Z M-6.3125 8.75 C-6.73030879 11.37694422 -6.73030879 11.37694422 -6.3125 13.75 C-3.06266865 12.66215032 -3.06266865 12.66215032 -0.3125 10.75 C-0.27186168 9.08382885 -0.269779 7.41611905 -0.3125 5.75 C-2.7290724 5.75 -4.47344122 7.38249476 -6.3125 8.75 Z M-17.3125 9.75 C-19.6225 11.07 -21.9325 12.39 -24.3125 13.75 C-24.3125 15.4 -24.3125 17.05 -24.3125 18.75 C-22.89648286 19.23108275 -21.47965563 19.70978141 -20.0625 20.1875 C-19.27359375 20.45433594 -18.4846875 20.72117187 -17.671875 20.99609375 C-15.56428012 21.66954708 -13.46496027 22.24150595 -11.3125 22.75 C-11.6425 23.41 -11.9725 24.07 -12.3125 24.75 C-12.38246014 26.45702735 -12.39690154 28.16668003 -12.375 29.875 C-12.36146484 31.24011719 -12.36146484 31.24011719 -12.34765625 32.6328125 C-12.33605469 33.33148438 -12.32445312 34.03015625 -12.3125 34.75 C-13.3025 35.08 -14.2925 35.41 -15.3125 35.75 C-12.75590534 38.87472681 -10.27953713 40.06339742 -6.3125 40.75 C-3.67335341 39.70600024 -1.68462232 38.36304318 0.6875 36.75 C0.3575 36.09 0.0275 35.43 -0.3125 34.75 C-0.9725 34.75 -1.6325 34.75 -2.3125 34.75 C-2.2998599 30.67356829 -2.15114569 26.74718143 -1.3125 22.75 C2.07294851 20.05702959 5.44779414 19.37348616 9.6875 18.75 C9.6875 17.1 9.6875 15.45 9.6875 13.75 C7.0475 12.43 4.4075 11.11 1.6875 9.75 C1.3575 11.07 1.0275 12.39 0.6875 13.75 C-2.53284509 15.92186064 -4.47106396 16.80151649 -8.375 16.5625 C-13.9951484 15.00799087 -13.9951484 15.00799087 -16.3125 13.75 C-17.125 11.625 -17.125 11.625 -17.3125 9.75 Z M-22.3125 21.75 C-23.3025 22.74 -24.2925 23.73 -25.3125 24.75 C-22.8375 25.74 -22.8375 25.74 -20.3125 26.75 C-19.3225 25.76 -18.3325 24.77 -17.3125 23.75 C-19.7875 22.76 -19.7875 22.76 -22.3125 21.75 Z M5.6875 21.75 C4.6975 22.74 3.7075 23.73 2.6875 24.75 C5.1625 25.74 5.1625 25.74 7.6875 26.75 C8.6775 25.76 9.6675 24.77 10.6875 23.75 C8.2125 22.76 8.2125 22.76 5.6875 21.75 Z M-28.3125 26.75 C-28.64675735 29.12374861 -28.64675735 29.12374861 -28.3125 31.75 C-26.26825462 33.72610386 -25.1948175 34.75 -22.3125 34.75 C-22.3125 33.1 -22.3125 31.45 -22.3125 29.75 C-24.2925 28.76 -26.2725 27.77 -28.3125 26.75 Z M-0.3125 26.75 C-0.64675735 29.12374861 -0.64675735 29.12374861 -0.3125 31.75 C1.73174538 33.72610386 2.8051825 34.75 5.6875 34.75 C5.6875 33.1 5.6875 31.45 5.6875 29.75 C3.7075 28.76 1.7275 27.77 -0.3125 26.75 Z M-20.3125 29.75 C-20.73030879 32.37694422 -20.73030879 32.37694422 -20.3125 34.75 C-17.06266865 33.66215032 -17.06266865 33.66215032 -14.3125 31.75 C-14.27186168 30.08382885 -14.269779 28.41611905 -14.3125 26.75 C-16.7290724 26.75 -18.47344122 28.38249476 -20.3125 29.75 Z M7.6875 29.75 C7.26969121 32.37694422 7.26969121 32.37694422 7.6875 34.75 C10.93733135 33.66215032 10.93733135 33.66215032 13.6875 31.75 C13.72813832 30.08382885 13.730221 28.41611905 13.6875 26.75 C11.2709276 26.75 9.52655878 28.38249476 7.6875 29.75 Z "
        fill="#fff" transform="translate(32.3125,4.25)" />
</svg>